
<svg 
	 xmlns="http://www.w3.org/2000/svg" width="150px" height="75px"  x="0px" y="0px" viewBox="0 0 583 162.1">
<switch>
	<g>
		<g>
			<path fill-rule="evenodd" clip-rule="evenodd" fill="#F4CC13" d="M0.2,62.5C15,127.6,55.3,164.3,119.9,162
				c48.5-1.7,106.5-34.3,146.1-18.7c-2.9-45.8-55.9-58.6-104.9-48.2c-31,6.6-56.9,0.5-70.3-4.1c-9.9-3.4-11.4-1.6-7,7.5
				c6.8,13.9,26.3,29.5,63,31.2c0,0-78.9,28.1-137.6-61.7c-1.5-2.3-3.1-5.8-5.3-8.2C0.9,56.5-0.6,58.7,0.2,62.5"/>
			<path fill-rule="evenodd" clip-rule="evenodd" fill="#2075BC" d="M265.8,99.6C251,34.5,210.6-2.2,146.1,0.1
				C97.6,1.8,39.6,34.4,0,18.8C2.9,64.6,55.9,77.4,104.9,67c31-6.6,56.9-0.5,70.3,4.1c9.9,3.4,11.4,1.6,7-7.5
				c-6.8-13.9-26.3-29.5-63-31.2c0,0,78.9-28.1,137.6,61.7c1.5,2.3,3.1,5.8,5.3,8.2C265.1,105.6,266.6,103.4,265.8,99.6"/>
		</g>
		<text transform="matrix(1 0 0 1 284.4379 45.4447)" display="none"><tspan x="0" y="0" display="inline" fill="#2075BC" font-family="'Bitter-Regular'" font-size="51.7149px">повернись </tspan><tspan x="0" y="46.9" display="inline" fill="#2075BC" font-family="'Bitter-Regular'" font-size="51.7149px">до мирного </tspan><tspan x="0" y="93.8" display="inline" fill="#2075BC" font-family="'Bitter-Regular'" font-size="51.7149px">життя</tspan></text>
		<g>
			<path fill="#2075BC" d="M313.4,41.3l4.4,1.3v2.8h-12.9v-2.8l3.4-1.3V22.2h-12.2v19.1l3.4,1.3v2.8h-12.9v-2.8l4.4-1.3V22.2l-4.4-1
				v-2.8l9.6-0.3h21.7v3.1l-4.4,1V41.3z"/>
			<path fill="#2075BC" d="M346.1,31.2c0,8.8-5.2,14.7-12.9,14.7c-7.8,0-12.4-4.7-12.4-14c0-8.8,5.4-14.5,13.2-14.5
				C341.7,17.5,346.1,22.9,346.1,31.2z M326.2,31.7c0,6.2,2.1,10.1,7.2,10.1c5.2,0,7.2-3.6,7.2-10.3c0-5.7-1.8-9.8-7-9.8
				C328.5,21.7,326.2,25,326.2,31.7z"/>
			<path fill="#2075BC" d="M353.4,22l-4.4-0.9v-2.8l9.6-0.3h7c4.7,0,8.3,2.6,8.3,6.7c0,3.9-2.7,5.6-6.3,6c3.9,0.4,7.3,2.8,7.3,6.7
				c0,5.7-4.3,8-11.8,8H349v-2.8l4.4-1.1V22z M363.6,29.3c3.1,0,5-0.9,5-3.7c0-2.3-1.4-3.7-4-3.7h-6.1v7.4H363.6z M363.3,41.7
				c3.9,0,6.1-1.1,6.1-4c0-3.6-1.8-5.1-6.1-5.1h-4.8v9.1H363.3z"/>
			<path fill="#2075BC" d="M384.5,32.5c0,5.7,3.1,9.3,7.5,9.3c5.2,0,8.7-2.8,8.7-2.8l1.8,2.7c0,0-4.8,4.3-11,4.3
				c-8.3,0-12.4-5.4-12.4-14c0-8.3,5.2-14.5,12.7-14.5c7.5,0,10.9,4.4,10.9,12.2c0,1.3-0.3,2.7-0.3,2.8H384.5z M397.1,28.6
				c0-3.9-1.5-7.1-5.6-7.1s-6.5,3.2-6.8,7.1H397.1z"/>
			<path fill="#2075BC" d="M415.5,20.9c1.6-1.4,4.3-3.4,7.9-3.4c7.5,0,11.1,5.4,11.1,13.4c0,8.8-4.4,15-14,15
				c-1.7,0-3.3-0.3-4.7-0.7v8.2l5.4,1v2.8h-14.7v-2.8l4.1-1V22.2l-4.4-1v-2.8l8.8-0.3L415.5,20.9z M415.9,40.8c0,0,1.6,1,5.4,1
				c6,0,7.8-4.7,7.8-10.3c0-5.7-2.1-9.8-6.7-9.8c-4.7,0-6.5,3.6-6.5,3.6V40.8z"/>
			<path fill="#2075BC" d="M465.4,41.3l4.4,1.3v2.8h-12.9v-2.8l3.4-1.3V33h-12.2v8.3l3.4,1.3v2.8h-12.9v-2.8l4.4-1.3V22.2l-4.4-1
				v-2.8l12.9-0.3v3.1l-3.4,1v7h12.2v-7l-3.4-1v-2.8l12.9-0.3v3.1l-4.4,1V41.3z"/>
			<path fill="#2075BC" d="M502.4,41.3l4.4,1.3v2.8h-12.7v-2.8l3.4-1.3V28.1L484.3,40v1.3l3.4,1.3v2.8H475v-2.8l4.4-1.3V22.2l-4.4-1
				v-2.8l12.7-0.3v3.1l-3.4,1v13.2l13.2-11.9v-1.3l-3.4-1v-2.8l12.7-0.3v3.1l-4.4,1V41.3z"/>
			<path fill="#2075BC" d="M527.2,22.2c0,0-2.1-0.5-4.7-0.5c-4.9,0-7.8,3.1-7.8,9.6c0,7,3.1,10.6,8,10.6s8-3.1,8-3.1l1.8,3.1
				c0,0-4.7,4.1-10.3,4.1c-8.5,0-12.9-5.4-12.9-14.2c0-8.3,5.2-14.2,13.4-14.2c4.7,0,8.8,2.1,8.8,2.1l-0.3,7H528L527.2,22.2z"/>
			<path fill="#2075BC" d="M540.7,22.2l-4.4-1v-2.8l14.2-0.3v3.1l-4.7,1.1v5.5h3.5c5.9,0,10.4,2.7,10.4,8.9c0,5.9-4.3,8.8-11.8,8.8
				h-11.7v-2.8l4.4-1.1V22.2z M548.3,41.6c3.9,0,6.1-1.6,6.1-4.4c0-4.1-1.8-5.6-6.1-5.6h-2.5v10H548.3z"/>
			<path fill="#2075BC" d="M315,100.6h-3.6l-1-8.3h-20.4l-1,8.3h-3.6l-0.3-11.9l2-0.3c3.4-0.6,4.9-3.3,5.6-9.8
				c0.5-4.7,0.6-6.3,0.8-9.6l-5.3-1v-3.1h26.3V68l-4.4,1v19.1l5.2,0.8L315,100.6z M304.9,69.1h-7.5c-0.2,2.7-0.3,5.2-0.8,9.7
				c-0.6,5.7-1.3,8.3-3.1,9.5h11.4V69.1z"/>
			<path fill="#2075BC" d="M342.6,78.1c0,8.8-5.2,14.7-12.9,14.7c-7.8,0-12.4-4.7-12.4-14c0-8.8,5.4-14.5,13.2-14.5
				C338.2,64.4,342.6,69.8,342.6,78.1z M322.7,78.6c0,6.2,2.1,10.1,7.2,10.1c5.2,0,7.2-3.6,7.2-10.3c0-5.7-1.8-9.8-7-9.8
				C325,68.5,322.7,71.9,322.7,78.6z"/>
			<path fill="#2075BC" d="M394.8,88.2l4.4,1.3v2.8h-12.4v-2.8l3.4-1.3V70.1l-1.5,3.2l-7.9,13.7l-2.9,0.3l-7.4-13l-1.2-2.9v17
				l3.4,1.3v2.8h-11.9v-2.8l4.4-1.3V69.1l-4.4-1v-2.8l10-0.3l9.3,16.9l9.3-16.7l10-0.3V68l-4.4,1V88.2z"/>
			<path fill="#2075BC" d="M430.3,88.2l4.4,1.3v2.8H422v-2.8l3.4-1.3V75l-13.2,11.9v1.3l3.4,1.3v2.8h-12.7v-2.8l4.4-1.3V69.1l-4.4-1
				v-2.8l12.7-0.3V68l-3.4,1v13.2l13.2-11.9v-1.3l-3.4-1v-2.8l12.7-0.3V68l-4.4,1V88.2z"/>
			<path fill="#2075BC" d="M446.5,67.8c1.6-1.4,4.3-3.4,7.9-3.4c7.5,0,11.1,5.4,11.1,13.4c0,8.8-4.4,15-14,15
				c-1.7,0-3.3-0.3-4.7-0.7v8.2l5.4,1v2.8h-14.7v-2.8l4.1-1V69.1l-4.4-1v-2.8l8.8-0.3L446.5,67.8z M446.9,87.7c0,0,1.6,1,5.4,1
				c6,0,7.8-4.7,7.8-10.3s-2.1-9.8-6.7-9.8c-4.7,0-6.5,3.6-6.5,3.6V87.7z"/>
			<path fill="#2075BC" d="M495.3,88.2l4.4,1.3v2.8h-12.9v-2.8l3.4-1.3v-8.3h-12.2v8.3l3.4,1.3v2.8h-12.9v-2.8l4.4-1.3V69.1l-4.4-1
				v-2.8l12.9-0.3V68l-3.4,1v7h12.2v-7l-3.4-1v-2.8l12.9-0.3V68l-4.4,1V88.2z"/>
			<path fill="#2075BC" d="M528.1,78.1c0,8.8-5.2,14.7-12.9,14.7c-7.8,0-12.4-4.7-12.4-14c0-8.8,5.4-14.5,13.2-14.5
				C523.7,64.4,528.1,69.8,528.1,78.1z M508.2,78.6c0,6.2,2.1,10.1,7.2,10.1c5.2,0,7.2-3.6,7.2-10.3c0-5.7-1.8-9.8-7-9.8
				S508.2,71.9,508.2,78.6z"/>
			<path fill="#2075BC" d="M551.2,75l-0.8-5.9h-9.1v19.1l5.2,1.3v2.8h-14.7v-2.8l4.4-1.3V69.1l-4.4-1v-2.8l9.6-0.3h13.7L554.8,75
				H551.2z"/>
			<path fill="#2075BC" d="M583,78.1c0,8.8-5.2,14.7-12.9,14.7c-7.8,0-12.4-4.7-12.4-14c0-8.8,5.4-14.5,13.2-14.5
				C578.6,64.4,583,69.8,583,78.1z M563.1,78.6c0,6.2,2.1,10.1,7.2,10.1s7.2-3.6,7.2-10.3c0-5.7-1.8-9.8-7-9.8
				C565.4,68.5,563.1,71.9,563.1,78.6z"/>
			<path fill="#2075BC" d="M327.1,139.2h-7l-7.4-11.9h-4.5v7.8l3.1,1.3v2.8h-10.9v-2.8l3.1-1.3v-7.8h-4.7l-7.4,11.9h-6.8v-2.8
				l3.9-1.3h0.1l6.7-10.3l-5.3-9.2h-0.1l-3.7-0.6v-3.1l11.4,0.3v2.8l-2.3,0.7l3.9,7.8h4.4V116l-2.6-1v-2.8l9.8-0.3v3.1l-2.6,1.1v7.5
				h4.6l3.9-7.8l-2.3-0.7v-2.8l11.2-0.3v3.1l-3.7,0.6h-0.1l-5.3,9.2l6.7,10.3h0.1l3.9,1.3V139.2z"/>
			<path fill="#2075BC" d="M357.5,135.1l4.4,1.3v2.8h-12.7v-2.8l3.4-1.3v-13.2l-13.2,11.9v1.3l3.4,1.3v2.8h-12.7v-2.8l4.4-1.3V116
				l-4.4-1v-2.8l12.7-0.3v3.1l-3.4,1v13.2l13.2-11.9V116l-3.4-1v-2.8l12.7-0.3v3.1l-4.4,1V135.1z"/>
			<path fill="#2075BC" d="M390.3,121.4h-3.6l-0.8-5.4h-5.9v19.1l5.2,1.3v2.8h-15.5v-2.8l5.2-1.3V116h-5.9l-0.8,5.4h-3.6l-0.3-9.6
				h26.4L390.3,121.4z"/>
			<path fill="#2075BC" d="M419.4,121.4h-3.6L415,116h-5.9v19.1l5.2,1.3v2.8h-15.5v-2.8l5.2-1.3V116H398l-0.8,5.4h-3.6l-0.3-9.6
				h26.4L419.4,121.4z"/>
			<path fill="#2075BC" d="M434.8,136.4l3.4-1v-6.8h-2.3c-3.6,0-5.1,1.5-6.9,5l-3.1,5.7h-7.1v-2.8l3.7-1.2l2.1-3.3
				c2-3,3.1-3.8,5.4-4.2c-2.5-0.5-7.1-2.1-7.1-7.7c0-6.1,5-8.2,11.1-8.2h13.7v2.8l-4.4,0.9v19.8l4.4,1v2.8h-12.9V136.4z
				 M433.8,115.6c-2.8,0-5.4,1-5.4,4.1c0,4.1,2.9,5.2,7.2,5.2h2.6v-9.3H433.8z"/>
		</g>
	</g>
</switch>
</svg>
